<svg version="1.1" id="Layer_1" xmlns="http://www.w3.org/2000/svg" x="0" y="0" viewBox="0 0 244.5 88.9" style="enable-background:new 0 0 244.5 88.9" xml:space="preserve">
  <style>
    .st0{fill:#fff}
  </style>
  <path class="st0" d="M114.8 0h6.7v22.1h6.4v5.4h-19.4v-5.4h6.3V0zM99.1 0h6.7v27.6h-6.7V16.3h-9v11.3h-6.7V0H90v10.9h9V0zM72.6 16.5h-9.1v-5.4h9.1V5.4h-9.1V0h15.8v27.6H63.6v-5.4h9.1v-5.7zM130.7 0h113.1v27.6H130.7zM0 30.4h60.3V58H0zM204.3 60.8h6.7v27.6h-9.5c-6.5 0-10.2-3.3-10.2-9 0-5.8 3.8-9.5 9.8-9.5h3.2v-9.1zm-1.8 14.5c-2.8 0-4.4 1.4-4.4 3.8 0 2.3 1.6 3.8 3.9 3.8h2.3v-7.6h-1.8zM181 60.8h6.7v27.6h-9.5c-6.5 0-10.2-3.3-10.2-9 0-5.8 3.8-9.5 9.8-9.5h3.2v-9.1zm-1.8 14.5c-2.8 0-4.4 1.4-4.4 3.8 0 2.3 1.6 3.8 3.9 3.8h2.3v-7.6h-1.8zM127.2 69.1v-.5c0-1.4-1.5-2.5-3.3-2.5-1.6 0-2.9 1-2.9 2.2 0 1.3.7 1.9 4 3 6 2.1 8.4 4.7 8.4 8.9 0 5.2-3.8 8.6-9.5 8.6-3.7 0-6.8-1.6-8.4-4.3-.8-1.3-1.2-2.5-1.4-4.4h6.8c.2 1.9 1.2 2.8 3.1 2.8 1.7 0 2.7-.9 2.7-2.2 0-.8-.4-1.5-1.3-2-.5-.3-1-.6-3.1-1.4-3.1-1.2-4.6-2-5.9-3.1-1.5-1.4-2.3-3.3-2.3-5.5 0-5.1 4-8.6 9.9-8.6 6 0 9.8 3.4 9.8 8.9h-6.6zM103.4 60.8h6.7v27.6h-6.7V60.8zM87.7 60.8h6.7v22.1h6.4v5.4H81.3v-5.4h6.3V60.8zM72.6 77.3h-9.1v-5.4h9.1v-5.7h-9.1v-5.4h15.8v27.6H63.5V83h9.1v-5.7zM150.9 60.3c-8 0-14.4 6.4-14.4 14.3 0 8.2 6.1 14.4 14.3 14.4 4 0 7.6-1.4 10.3-3.8 3-2.9 4.6-6.6 4.6-10.6 0-8.1-6.5-14.3-14.8-14.3zM229.8 60.3c-8 0-14.4 6.4-14.4 14.3 0 8.2 6.1 14.4 14.3 14.4 4 0 7.6-1.4 10.3-3.8 3-2.9 4.6-6.6 4.6-10.6-.1-8.1-6.6-14.3-14.8-14.3zM70.2 41.4h9.1v5.4h-9.1v5.7h9.1V58H63.6V30.4h15.8v5.4h-9.1v5.6zM89.4 58h-7.7l8.4-14.8L83 30.4h7.6l3.3 6.6 3.5-6.6h7.6l-7.3 12.8L106 58h-7.6l-4.5-8.9-4.5 8.9zM159 54.6c-3.3 2.8-6.2 3.9-10.3 3.9-4.2 0-7.6-1.4-10.1-4.2-2.4-2.6-3.7-6.3-3.7-10.1 0-4.5 1.8-8.6 4.9-11.3 2.4-2.1 5.4-3.1 9.1-3.1 2.3 0 4.6.5 6.5 1.4 1.4.7 2.3 1.3 3.9 2.8l-4.3 4.5c-1.9-1.7-3.8-2.5-5.9-2.5-4.4 0-7.5 3.3-7.5 8 0 4.9 3.3 8.3 7.9 8.3 2.4 0 4-.7 5.5-2.4l4 4.7zM173.9 58h-6.7V35.8h-6.4v-5.4h19.4v5.4h-6.3V58zM125 30.4h-8.5L107.4 58h7.1l1.2-4h9.8l1.2 4h7.4z"/>
</svg>
