<svg xmlns="http://www.w3.org/2000/svg" viewBox="0 0 457.4 28.6" style="enable-background:new 0 0 457.4 28.6" xml:space="preserve">
  <path d="M51.2.5h6.7v22.1h6.4V28H44.9v-5.4h6.3V.5zM35.5.5h6.7v27.6h-6.7V16.8h-9v11.3h-6.7V.5h6.7v10.9h9V.5zM9.1 17.1H0v-5.4h9.1V6H0V.5h15.8v27.6H0v-5.4h9.1v-5.6zM67.1.5h55.1v27.6H67.1zM245.3.5h27.6v27.6h-27.6zM417.2.5h6.7v27.6h-9.5c-6.5 0-10.2-3.3-10.2-9 0-5.8 3.8-9.5 9.8-9.5h3.2V.5zM415.3 15c-2.8 0-4.4 1.4-4.4 3.8 0 2.3 1.6 3.8 3.9 3.8h2.3V15h-1.8zM393.9.5h6.7v27.6h-9.5c-6.5 0-10.2-3.3-10.2-9 0-5.8 3.8-9.5 9.8-9.5h3.2V.5zM392 15c-2.8 0-4.4 1.4-4.4 3.8 0 2.3 1.6 3.8 3.9 3.8h2.3V15H392zM340 8.9v-.5c0-1.4-1.5-2.5-3.3-2.5-1.6 0-2.9 1-2.9 2.2 0 1.3.7 1.9 4 3 6 2.1 8.4 4.7 8.4 8.9 0 5.2-3.8 8.6-9.5 8.6-3.7 0-6.8-1.6-8.4-4.3-.8-1.3-1.2-2.5-1.4-4.4h6.8c.2 1.9 1.2 2.8 3.1 2.8 1.7 0 2.7-.9 2.7-2.2 0-.8-.4-1.5-1.3-2-.5-.3-1-.6-3.1-1.4-3.1-1.2-4.6-2-5.9-3.1-1.5-1.4-2.3-3.3-2.3-5.5 0-5.1 4-8.6 9.9-8.6 6 0 9.8 3.4 9.8 8.9H340zM316.3.5h6.7v27.6h-6.7V.5zM300.5.5h6.7v22.1h6.4V28h-19.4v-5.4h6.3V.5zM285.5 17.1h-9.1v-5.4h9.1V6h-9.1V.5h15.8v27.6h-15.8v-5.4h9.1v-5.6zM363.8 0c-8 0-14.4 6.4-14.4 14.3 0 8.2 6.1 14.4 14.3 14.4 4 0 7.6-1.4 10.3-3.8 3-2.9 4.6-6.6 4.6-10.6-.1-8-6.6-14.3-14.8-14.3zM442.6 0c-8 0-14.4 6.4-14.4 14.3 0 8.2 6.1 14.4 14.3 14.4 4 0 7.6-1.4 10.3-3.8 3-2.9 4.6-6.6 4.6-10.6 0-8-6.5-14.3-14.8-14.3zM132.5 11.6h9.1V17h-9.1v5.7h9.1v5.4h-15.8V.5h15.8V6h-9.1v5.6zM151.6 28.1h-7.7l8.4-14.8L145.2.5h7.6l3.3 6.6 3.5-6.6h7.6l-7.3 12.8 8.3 14.8h-7.6l-4.5-8.9-4.5 8.9zM221.3 24.7c-3.3 2.8-6.2 3.9-10.3 3.9-4.2 0-7.6-1.4-10.1-4.2-2.4-2.6-3.7-6.3-3.7-10.1 0-4.5 1.8-8.6 4.9-11.3 2.4-2.1 5.4-3.1 9.1-3.1 2.3 0 4.6.5 6.5 1.4 1.4.7 2.3 1.3 3.9 2.8l-4.3 4.5c-1.9-1.7-3.8-2.5-5.9-2.5-4.4 0-7.5 3.3-7.5 8 0 4.9 3.3 8.3 7.9 8.3 2.4 0 4-.7 5.5-2.4l4 4.7zM236.1 28.1h-6.7V6H223V.5h19.4V6h-6.3v22.1zM187.3.5h-8.6l-9 27.6h7.1l1.2-4h9.7l1.2 4h7.4z"/>
</svg>
